<svg xmlns="http://www.w3.org/2000/svg" viewBox="0 0 1051.24 1080"><g id="background"><g id="SPLINE"><path d="M757.77,103.52c-1.18-14.43,0-29.19,5.87-42.44a39.72,39.72,0,0,1,7.05-11.26,30.38,30.38,0,0,1,10.93-7.54,24.38,24.38,0,0,1,10.22-1.8,16.38,16.38,0,0,1,9.78,3.46,13.09,13.09,0,0,1,4.32,7.19,16.74,16.74,0,0,1-.41,8.37,29.45,29.45,0,0,1-2.77,6.33A57.86,57.86,0,0,1,799,71.61a82.56,82.56,0,0,1-7,8.19,97.28,97.28,0,0,1-7.89,7.3,119.26,119.26,0,0,1-26.34,16.43l-2.57,1.15a145.23,145.23,0,0,1-32.44,9.58,178,178,0,0,1-35.18,2.82,228.7,228.7,0,0,1-35.12-3.56,297.19,297.19,0,0,1-73.82-23.28C555.09,79.15,533.17,64.77,515,46.12A143.15,143.15,0,0,1,487.18,6c-1-2.14-1.9-4.3-2.75-6.45H435.91C443,19.5,454.55,45.15,472,67.45c23.22,29.69,54.86,51.34,89,67.45,26.91,12.69,55.3,22,84.7,26.61s59.53,5,88.78-.69a187.48,187.48,0,0,0,50.39-17.15,160.58,160.58,0,0,0,42.71-31.75,119.48,119.48,0,0,0,15.48-20,75.07,75.07,0,0,0,9.55-23.37A62.46,62.46,0,0,0,819.52-.48H759.79a77.86,77.86,0,0,0-18.67,12.26,83.27,83.27,0,0,0-17.88,22.89,114.71,114.71,0,0,0-10.1,27.24,170.5,170.5,0,0,0-4.06,54.26l10.84,47C739,212.93,782.39,254.12,835,271c49.06,15.7,103.26,9.69,143.89-21.78,33.55-26,53.77-64.78,67.19-105.32,1.71-5.16,3.38-10.33,5.12-15.47V41.05a100.67,100.67,0,0,0-19.58,21.59c-12.39,18.56-19.08,40.1-26.76,61.13-8.64,23.68-19.43,46.75-36,65.62a113.1,113.1,0,0,1-75.42,38.08C841,231.92,794,197.94,770.83,150.12h0" fill="#f9f6f2"/></g><g id="SPLINE-2" data-name="SPLINE"><path d="M1051.24,576a117.79,117.79,0,0,0-24.64-4,113.69,113.69,0,0,0-52.26,9.85,124.24,124.24,0,0,0-41.19,30.25c-11.51,12.63-20.5,27.3-28.5,42.41-6.91,13.06-12.5,26.75-15.65,41.16-10.33,47.26,7.91,95.52,38.58,133.21,34.47,42.37,84.87,68.48,123.66,106.18v92.81c-15.49-36.36-41.77-67.17-72.53-92.44-13-10.66-26.47-20.61-39.74-30.89a300.42,300.42,0,0,1-37-34.11c-28.37-30.83-48.69-68.52-56.7-109.55A202.77,202.77,0,0,1,859.9,638.38a210.5,210.5,0,0,1,25.39-42,203.74,203.74,0,0,1,34.24-35.2,164.9,164.9,0,0,1,48.21-26.6,161.23,161.23,0,0,1,54.32-9,165.87,165.87,0,0,1,29.18,2.89Z" fill="#f9f6f2"/></g><g id="SPLINE-3" data-name="SPLINE"><path d="M341.37,465.11c.69-1.56,1.35-3.14,2-4.72a112.9,112.9,0,0,0,6.86-27.13,101.64,101.64,0,0,0-.33-28A91.06,91.06,0,0,0,343.93,384a68.86,68.86,0,0,0-11.66-18.78,65.73,65.73,0,0,0-46.54-22.32,67.79,67.79,0,0,0-68.9,55.59,68.77,68.77,0,0,0,6.08,42.33,83.46,83.46,0,0,0,13.45,19.32,131.43,131.43,0,0,0,17.49,15.76,186.89,186.89,0,0,0,76.8,34.27,200.53,200.53,0,0,0,84.1-1.22,186.91,186.91,0,0,0,28.13-8.74,203.61,203.61,0,0,0,26.48-12.9,244.79,244.79,0,0,0,27-18.4q12.88-10,25.22-20.79c29.43-25.5,59-53.57,97.23-57.23,37.31-3.58,71,17.52,103.8,36.65,42,24.54,87.07,49,134.27,40.2,47-8.8,80.14-47.25,111.33-84.4,14.49-17.26,29.34-34.76,49.57-44.39a87,87,0,0,1,33.45-8V285.16a146.87,146.87,0,0,0-58,15.53c-19.34,9.74-36.12,23.77-50.26,40.17-2.79,3.23-5.4,6.62-8,10s-5.05,6.89-7.64,10.28c-22,28.72-47.78,56.76-83.15,61.24-34.77,4.41-66.38-15.16-96.75-33.66-40-24.37-82.06-48.66-128.29-45.51-46.62,3.18-85.07,33.7-121,64.37-9.49,8.1-18.84,16.38-28.72,24A194.08,194.08,0,0,1,438,452a147,147,0,0,1-54.36,15.31,155.61,155.61,0,0,1-52.38-4.47,147.89,147.89,0,0,1-33.42-13.26,140.12,140.12,0,0,1-14.23-8.93,94.59,94.59,0,0,1-7.49-5.89,64.89,64.89,0,0,1-6.71-6.76,45.07,45.07,0,0,1-4.07-5.54,25,25,0,0,1-2.9-6.22,20.45,20.45,0,0,1-.45-9.49A21.8,21.8,0,0,1,265.8,398a23,23,0,0,1,9-7.49A19.82,19.82,0,0,1,286.47,389a18.73,18.73,0,0,1,8.44,3.86,22.43,22.43,0,0,1,5.78,7.25,39.37,39.37,0,0,1,3.88,13.6,56.7,56.7,0,0,1-.09,14.14,67.92,67.92,0,0,1-6.64,21.73l-35.21,32.59c-.85.37-1.72.72-2.59,1.06-18.5,7.17-39,7.23-57.84,1.06-18.71-6.12-34.84-18.09-47.21-33.44a139.3,139.3,0,0,1-23.53-44.37,229.65,229.65,0,0,1-9.86-49.24q-.54-5.67-1-11.35c-.35-3.79-.86-7.56-1.46-11.31a128.16,128.16,0,0,0-13.63-40.7,104.09,104.09,0,0,0-27.79-32.72,114.63,114.63,0,0,0-27.51-15.53A157.13,157.13,0,0,0,19.76,237,199.21,199.21,0,0,0,0,234.42V280H0a137.57,137.57,0,0,1,27.94,6.42A73.2,73.2,0,0,1,50.7,299a63.34,63.34,0,0,1,16.12,20.36,71.09,71.09,0,0,1,5.76,17.51c1.27,6,1.86,12.15,2.6,18.25,1.39,11.41,2.47,22.88,4.56,34.19a219.57,219.57,0,0,0,8.63,33.4c6.11,17.26,14,33.89,24.68,48.8A155.8,155.8,0,0,0,151.83,510a139.81,139.81,0,0,0,61.44,23.68,130.81,130.81,0,0,0,65.31-8.36,117.4,117.4,0,0,0,32.91-20" fill="#f9f6f2"/></g><g id="SPLINE-4" data-name="SPLINE"><path d="M315.53-.48C318.59,4,322.69,10.22,327.08,18c15,26.49,42.55,76.28,31.08,122.16-12.76,51-62.16,82.18-115.2,85.19-42.39,2.41-82.56-14.39-121.62-31.61C81.18,176,41.22,156.73,0,142.58V96.48c30.48,8.65,60.15,20.2,89.3,32.75,3,1.29,5.94,2.66,8.9,4l8.9,4,6.54,3,6.55,2.94,5.45,2.44,5.45,2.45c12.75,5.72,25.47,11.52,38.49,16.6s26.33,9.59,40,12.35c15.24,3.06,30.81,3.83,46,.77a84.71,84.71,0,0,0,41.15-20.6,59.16,59.16,0,0,0,11.26-14.45,57,57,0,0,0,6.26-17.23,64,64,0,0,0,.23-20.48,101,101,0,0,0-5-19.87c-7.78-22-19-42.66-31.83-62.23C272.39,14.74,266.8,6.77,261.51-.48Z" fill="#f9f6f2"/></g><g id="SPLINE-5" data-name="SPLINE"><path d="M703.24,861.61a127.84,127.84,0,0,0-1.45-15,121.91,121.91,0,0,0-7.67-27.07,89.47,89.47,0,0,0-14.58-24.06c-24.16-28.53-64.72-38.07-98.41-22.37-34,15.83-52.5,53.55-44.91,90.38A85,85,0,0,0,551.31,897a102.86,102.86,0,0,0,26.78,25.14,110.17,110.17,0,0,0,42.23,15.9,123.47,123.47,0,0,0,45.1-1.18,128.38,128.38,0,0,0,51.73-23.82c15.23-11.69,27.09-27,36.33-43.85,23.54-42.88,28.29-93.38,18.8-141.42-9.46-47.87-33.17-92.12-69.64-124.51-21-18.62-45.56-32.95-72.9-39a149.74,149.74,0,0,0-82.55,5,178.65,178.65,0,0,0-51.44,29,323.76,323.76,0,0,0-42.4,41.13q-6.69,7.68-13.14,15.55t-13,15.69q-6.39,7.7-12.94,15.26T401,700.78c-6.1,6.63-12.37,13.1-19,19.22a158.32,158.32,0,0,1-21.17,16.79,108.19,108.19,0,0,1-29.56,13.6,91.06,91.06,0,0,1-32.38,3.27,95.33,95.33,0,0,1-28.12-6.92,138.08,138.08,0,0,1-25.43-13.87,229.68,229.68,0,0,1-21-16.19q-10.05-8.65-19.45-18-7.8-7.73-15.29-15.72c-5-5.34-10-10.7-14.94-16.07q-4.23-4.57-8.52-9.1t-8.79-8.85a167.22,167.22,0,0,0-31.86-24.38A121,121,0,0,0,88,610.33a126.82,126.82,0,0,0-36-1.53,165.76,165.76,0,0,0-35.23,7.42Q8.26,619,0,622.47v53.46a221.83,221.83,0,0,1,20.91-10.59c20.2-8.84,42.31-14,63.45-8.3,24.57,6.63,42.23,26.59,59.67,45.46s35.27,37.77,55.29,54c32.73,26.6,71.36,46.59,113.24,45.17,66.56-2.26,114.22-57.26,157.57-109.68,7.68-9.29,15.21-18.73,23.29-27.67a245,245,0,0,1,26-25.19c11.15-9.18,23.16-17.34,36.38-23.13a105.64,105.64,0,0,1,42.08-9.37,99.16,99.16,0,0,1,49.87,13.54,131.53,131.53,0,0,1,38.42,34.54A172.56,172.56,0,0,1,709,695.89c32.63,82.39,19.36,186.37-55.44,192.56a88,88,0,0,1-10.59.22c-38.4-1.41-75.27-25.54-59-56,10.59-19.74,36-27.47,53.89-14.32,12.67,9.32,16.37,25.57,17.18,41.53a136.11,136.11,0,0,1-1.53,28.53l-19.83,51c-34.69,53.33-106.38,83.86-178.34,77-107.55-10.28-193.39-103.1-300.6-96.89C82.87,923.7,27.83,971.81,0,1002.13v77.39c10.17-17.08,37.29-58,77.57-84.61,23.38-15.46,50-25.91,77.9-28a150,150,0,0,1,37.08,1.83,212.93,212.93,0,0,1,35.83,9.7,416.71,416.71,0,0,1,40.8,17.66c13.31,6.51,26.55,13.16,39.83,19.73,15.81,7.83,31.81,15.27,48.08,22.07A378.15,378.15,0,0,0,407.16,1055a276.4,276.4,0,0,0,101.57,7.59,239.67,239.67,0,0,0,96.48-32.67,208.46,208.46,0,0,0,58.87-52.5,201.35,201.35,0,0,0,27.36-49" fill="#f9f6f2"/></g></g><g id="line1"><g id="SPLINE-6" data-name="SPLINE"><path d="M719.92,163.64c19.08,49.77,62.47,91,115.12,107.8,49.06,15.7,103.26,9.69,143.89-21.78,33.55-26,53.77-64.77,67.19-105.32,1.71-5.16,3.38-10.33,5.12-15.47" fill="none" stroke="#1ed760" stroke-linecap="round" stroke-linejoin="round" stroke-width="4"/></g><g id="SPLINE-7" data-name="SPLINE"><path d="M740.25,160.1c15,33.9,39.14,63.6,71.55,81.62a147.27,147.27,0,0,0,85,17.86c34.54-3.14,67.62-17.22,91.89-42a152.67,152.67,0,0,0,32.7-50.91c9.31-23.58,14.17-48.81,26.46-70.93,1.08-1.94,2.22-3.85,3.41-5.71" fill="none" stroke="#1ed760" stroke-linecap="round" stroke-linejoin="round" stroke-width="4"/></g><g id="SPLINE-8" data-name="SPLINE"><path d="M757,155.58c1.73,3.77,3.61,7.49,5.64,11.12,28,50.08,81.75,82.5,138.56,75.93,45-5.21,83.67-33.63,103.15-74.72,15-31.55,18.61-67.71,38.76-96a94.88,94.88,0,0,1,8.09-9.89" fill="none" stroke="#1ed760" stroke-linecap="round" stroke-linejoin="round" stroke-width="4"/></g><g id="SPLINE-9" data-name="SPLINE"><path d="M770.83,150.61C794,198.42,841,232.41,893.47,228a113.1,113.1,0,0,0,75.42-38.08c16.58-18.87,27.37-41.94,36-65.62,7.68-21,14.37-42.57,26.76-61.13a100.67,100.67,0,0,1,19.58-21.59" fill="none" stroke="#1ed760" stroke-linecap="round" stroke-linejoin="round" stroke-width="4"/></g><g id="SPLINE-10" data-name="SPLINE"><path d="M757.77,104a119.26,119.26,0,0,0,26.34-16.43,97.28,97.28,0,0,0,7.89-7.3,82.56,82.56,0,0,0,7-8.19,57.86,57.86,0,0,0,3.77-5.78A29.59,29.59,0,0,0,805.53,60a16.79,16.79,0,0,0,.41-8.38,13,13,0,0,0-4.32-7.18A16.39,16.39,0,0,0,791.84,41a24.38,24.38,0,0,0-10.22,1.8,30.38,30.38,0,0,0-10.93,7.54,39.72,39.72,0,0,0-7.05,11.26c-5.83,13.25-7,28-5.87,42.44" fill="none" stroke="#1ed760" stroke-linecap="round" stroke-linejoin="round" stroke-width="4"/></g><g id="SPLINE-11" data-name="SPLINE"><path d="M469,0a158.52,158.52,0,0,0,11.59,25.34c22.38,38.8,62.06,63.59,103.25,82.05,35.51,15.93,73.09,26.24,111.9,24.65,39.16-1.6,78.32-13.53,106-40.94,14.18-14,25.11-32.52,16.07-49.39-9.47-17.67-33-19.39-49.91-8.12s-22.62,32.49-23.94,52.92a138.44,138.44,0,0,0,.46,22.77" fill="none" stroke="#1ed760" stroke-linecap="round" stroke-linejoin="round" stroke-width="4"/></g><g id="SPLINE-12" data-name="SPLINE"><path d="M484.43,0q1.27,3.24,2.75,6.45A143.05,143.05,0,0,0,515,46.61c18.13,18.64,40.05,33,63.6,44.11A297.19,297.19,0,0,0,652.46,114a227.46,227.46,0,0,0,35.12,3.56,178,178,0,0,0,35.18-2.82,144.71,144.71,0,0,0,32.44-9.58c.86-.37,1.72-.76,2.57-1.15" fill="none" stroke="#1ed760" stroke-linecap="round" stroke-linejoin="round" stroke-width="4"/></g><g id="SPLINE-13" data-name="SPLINE"><path d="M450.83,0a184.4,184.4,0,0,0,7.87,20.42,173.24,173.24,0,0,0,34.05,48.76c20.45,20.88,45,37.17,71.35,49.74A328.14,328.14,0,0,0,647,145.25a248.41,248.41,0,0,0,40.43,4A222.62,222.62,0,0,0,727.94,146a173.5,173.5,0,0,0,40.28-11.95,157.7,157.7,0,0,0,35.87-21.87,116.65,116.65,0,0,0,10.66-9.83,109.78,109.78,0,0,0,9.42-11,88.55,88.55,0,0,0,6.5-10,57.59,57.59,0,0,0,4.8-10.91,50.55,50.55,0,0,0,.91-27.82,43.88,43.88,0,0,0-15.26-23.27,48.42,48.42,0,0,0-25.37-9.9,55.78,55.78,0,0,0-26.91,4.25,62.85,62.85,0,0,0-21.37,15,70,70,0,0,0-13.71,22.2c-6.91,17.31-9,36.19-7.66,54.8.19,2.75.47,5.51.82,8.25" fill="none" stroke="#1ed760" stroke-linecap="round" stroke-linejoin="round" stroke-width="4"/></g><g id="SPLINE-14" data-name="SPLINE"><path d="M435.91,0C443,20,454.55,45.63,472,67.94c23.22,29.68,54.86,51.33,89,67.44,26.91,12.7,55.3,22.05,84.7,26.61s59.53,5,88.78-.69a187.13,187.13,0,0,0,50.39-17.15A160.58,160.58,0,0,0,827.6,112.4a119.07,119.07,0,0,0,15.48-20,75.12,75.12,0,0,0,9.55-23.36A62.49,62.49,0,0,0,819.52,0" fill="none" stroke="#1ed760" stroke-linecap="round" stroke-linejoin="round" stroke-width="4"/></g><g id="SPLINE-15" data-name="SPLINE"><path d="M759.79,0a77.86,77.86,0,0,0-18.67,12.26,83.27,83.27,0,0,0-17.88,22.89,114.63,114.63,0,0,0-10.1,27.25,170.42,170.42,0,0,0-4.06,54.25" fill="none" stroke="#1ed760" stroke-linecap="round" stroke-linejoin="round" stroke-width="4"/></g></g><g id="line2"><g id="SPLINE-16" data-name="SPLINE"><path d="M0,97.32c32.85,9.33,64.79,21.6,95.88,35.69,30.63,13.89,60.9,29.23,93.05,39.37,29.41,9.27,62.49,12.6,90.7-2.25,12.18-6.41,23-15.93,29.33-28.27,7.36-14.29,7.48-30.85,3.58-46.16-7.91-31-25.4-58.93-43.56-84.89Q265.29,5.55,261.51.36" fill="none" stroke="#ff9ed3" stroke-linecap="round" stroke-linejoin="round" stroke-width="3"/></g><g id="SPLINE-17" data-name="SPLINE"><path d="M0,111.89c20,6.12,39.74,13.48,59.16,21.4,9.59,3.91,19,8.2,28.45,12.42s18.86,8.54,28.31,12.75c7.32,3.26,14.58,6.61,21.91,9.81s14.69,6.37,22.13,9.32a323.91,323.91,0,0,0,35.1,12.1c12,3.22,24.25,5.53,36.66,5.86a115.07,115.07,0,0,0,37-4.85,98.83,98.83,0,0,0,33.11-17.27,77.67,77.67,0,0,0,20.5-24.77,72.22,72.22,0,0,0,7.88-31.17c.31-11.52-2.09-22.9-5.7-33.87A205.3,205.3,0,0,0,310.68,52.2,506.51,506.51,0,0,0,281.1,3.55c-.72-1.07-1.45-2.13-2.18-3.19" fill="none" stroke="#ff9ed3" stroke-linecap="round" stroke-linejoin="round" stroke-width="3"/></g><g id="SPLINE-18" data-name="SPLINE"><path d="M0,127.16l4.37,1.48C20.8,134.31,37,140.61,53,147.42s31.89,13.8,47.68,21q17.63,8.07,35.37,15.84c11.85,5.16,23.83,10,36,14.34A253,253,0,0,0,201,207.06a158.17,158.17,0,0,0,29.86,3.88,133.63,133.63,0,0,0,34.4-3.45,120.77,120.77,0,0,0,32.2-12.57,100.56,100.56,0,0,0,26-20.71A88.43,88.43,0,0,0,340.6,145.8a85.13,85.13,0,0,0,5.06-28.45,110.84,110.84,0,0,0-3.56-28.66,177,177,0,0,0-10.91-29.92,316.34,316.34,0,0,0-15-28.1Q307.11,15.3,297.29.36" fill="none" stroke="#ff9ed3" stroke-linecap="round" stroke-linejoin="round" stroke-width="3"/></g><g id="SPLINE-19" data-name="SPLINE"><path d="M0,143.42c41.22,14.15,81.18,33.43,121.34,51.13,39.06,17.22,79.23,34,121.62,31.62,53-3,102.44-34.2,115.2-85.2C369.63,95.1,342.08,45.3,327.08,18.81c-4.39-7.75-8.49-14-11.55-18.45" fill="none" stroke="#ff9ed3" stroke-linecap="round" stroke-linejoin="round" stroke-width="3"/></g></g><g id="line3"><g id="SPLINE-20" data-name="SPLINE"><path d="M262.63,482.63c-.85.37-1.72.72-2.59,1.06-18.5,7.18-39,7.23-57.84,1.06-18.71-6.12-34.84-18.09-47.21-33.43A139.51,139.51,0,0,1,131.46,407a229.86,229.86,0,0,1-9.86-49.25q-.54-5.67-1-11.35c-.35-3.79-.86-7.55-1.46-11.31a128.24,128.24,0,0,0-13.63-40.7,104.09,104.09,0,0,0-27.79-32.72,114.63,114.63,0,0,0-27.51-15.53,157.13,157.13,0,0,0-30.4-8.62A199.21,199.21,0,0,0,0,234.9" fill="none" stroke="#ff822f" stroke-linecap="round" stroke-linejoin="round" stroke-width="3"/></g><g id="SPLINE-21" data-name="SPLINE"><path d="M278.39,492.07c-13.59,7.76-29.82,12.14-45.93,12.88C166,508,119.71,448.3,108.69,381.19c-3-18-2.64-36.45-7-54.12C88.32,272.3,43.73,254.2,0,250.46" fill="none" stroke="#ff822f" stroke-linecap="round" stroke-linejoin="round" stroke-width="3"/></g><g id="SPLINE-22" data-name="SPLINE"><path d="M294.71,499.78a106.74,106.74,0,0,1-24.27,13,116.48,116.48,0,0,1-77.26,1.51c-25-8.1-46.71-24-63.06-44.65a168.11,168.11,0,0,1-27.68-52.11A267.76,267.76,0,0,1,90.77,359.7c-.32-3.4-.65-6.81-1-10.21s-.76-6.8-1.31-10.17a95.66,95.66,0,0,0-9.74-29.43,74.2,74.2,0,0,0-19.91-23.76,84.1,84.1,0,0,0-21-11.69A125.8,125.8,0,0,0,14.75,268c-4.89-.9-9.81-1.57-14.75-2" fill="none" stroke="#ff822f" stroke-linecap="round" stroke-linejoin="round" stroke-width="3"/></g><g id="SPLINE-23" data-name="SPLINE"><path d="M311.49,505.81a117.66,117.66,0,0,1-32.91,20,130.92,130.92,0,0,1-65.31,8.35,139.81,139.81,0,0,1-61.44-23.68A155.8,155.8,0,0,1,113.05,472c-10.64-14.9-18.57-31.54-24.68-48.8a219.27,219.27,0,0,1-8.63-33.4c-2.09-11.31-3.17-22.77-4.56-34.19-.74-6.1-1.33-12.23-2.6-18.25a70.88,70.88,0,0,0-5.76-17.5A63.27,63.27,0,0,0,50.7,299.45a73.41,73.41,0,0,0-22.76-12.53A137.57,137.57,0,0,0,0,280.5" fill="none" stroke="#ff822f" stroke-linecap="round" stroke-linejoin="round" stroke-width="3"/></g><g id="SPLINE-24" data-name="SPLINE"><path d="M297.84,450.05a140.22,140.22,0,0,1-14.23-8.94" fill="none" stroke="#ff822f" stroke-linecap="round" stroke-linejoin="round" stroke-width="3"/></g><g id="SPLINE-25" data-name="SPLINE"><path d="M283.61,441.11a94.59,94.59,0,0,1-7.49-5.89,64.89,64.89,0,0,1-6.71-6.76,45.74,45.74,0,0,1-4.07-5.53,25.05,25.05,0,0,1-2.9-6.23,20.41,20.41,0,0,1-.45-9.48,21.84,21.84,0,0,1,3.81-8.7,23.06,23.06,0,0,1,9-7.49,19.74,19.74,0,0,1,11.63-1.56,18.6,18.6,0,0,1,8.44,3.85,22.43,22.43,0,0,1,5.78,7.25,39.37,39.37,0,0,1,3.88,13.6,56.7,56.7,0,0,1-.09,14.14,68.05,68.05,0,0,1-6.64,21.74" fill="none" stroke="#ff822f" stroke-linecap="round" stroke-linejoin="round" stroke-width="3"/></g><g id="SPLINE-26" data-name="SPLINE"><path d="M1051.24,331.4a87.15,87.15,0,0,0-33.45,8c-20.23,9.63-35.08,27.13-49.57,44.39C937,421,903.86,459.41,856.89,468.21c-47.2,8.84-92.22-15.66-134.27-40.2-32.78-19.13-66.49-40.22-103.8-36.65C580.59,395,551,423.09,521.59,448.6q-12.35,10.69-25.22,20.78a246.27,246.27,0,0,1-27,18.41,203.55,203.55,0,0,1-26.48,12.89,186.91,186.91,0,0,1-28.13,8.74,200.53,200.53,0,0,1-84.1,1.22,186.89,186.89,0,0,1-76.8-34.27,131.43,131.43,0,0,1-17.49-15.76,83.46,83.46,0,0,1-13.45-19.32A68.76,68.76,0,0,1,216.83,399a67.79,67.79,0,0,1,68.9-55.59,65.77,65.77,0,0,1,46.54,22.32,68.76,68.76,0,0,1,11.66,18.79,90.79,90.79,0,0,1,5.95,21.29,101.56,101.56,0,0,1,.33,28,112.9,112.9,0,0,1-6.86,27.13q-.94,2.38-2,4.72" fill="none" stroke="#ff822f" stroke-linecap="round" stroke-linejoin="round" stroke-width="3"/></g><g id="SPLINE-27" data-name="SPLINE"><path d="M1051.24,316.6A116.27,116.27,0,0,0,1006.67,329c-15.3,7.77-28.56,18.94-39.82,31.91-2.66,3.06-5.12,6.29-7.56,9.53S954.5,377,952,380.18c-26.75,35-59.24,68-102.44,73.6-42.46,5.48-81.71-16.85-119.18-38.75C696.33,395.1,661,374.44,622,376.81c-39.65,2.4-72.49,28.18-103.1,54.16-10.49,8.89-20.78,18-31.68,26.39a222.55,222.55,0,0,1-34.66,22.34,178.19,178.19,0,0,1-32.23,12.67,180.73,180.73,0,0,1-34.07,6.18,185.81,185.81,0,0,1-63-5.41,176.19,176.19,0,0,1-57.33-26.69,128.4,128.4,0,0,1-10.34-8.14,97.29,97.29,0,0,1-9.28-9.33,75.75,75.75,0,0,1-7.82-10.76A56.71,56.71,0,0,1,233,426.11a50.82,50.82,0,0,1-1.54-23.69,52.87,52.87,0,0,1,9.21-21.88,53.72,53.72,0,0,1,22.41-18.09A50.69,50.69,0,0,1,291.68,359a49.3,49.3,0,0,1,22.07,9.82,54.3,54.3,0,0,1,15,18.89,70,70,0,0,1,6.35,22,89.63,89.63,0,0,1-.07,22.91,97.74,97.74,0,0,1-8.67,29.3" fill="none" stroke="#ff822f" stroke-linecap="round" stroke-linejoin="round" stroke-width="3"/></g><g id="SPLINE-28" data-name="SPLINE"><path d="M1051.24,285.64a147,147,0,0,0-58,15.53c-19.34,9.75-36.12,23.77-50.26,40.17-2.79,3.24-5.4,6.62-8,10s-5.05,6.89-7.64,10.29c-22,28.71-47.78,56.76-83.15,61.24-34.77,4.4-66.38-15.17-96.75-33.67-40-24.37-82.06-48.66-128.29-45.51-46.62,3.18-85.07,33.7-121,64.37-9.49,8.11-18.84,16.39-28.72,24A194.08,194.08,0,0,1,438,452.46a146.79,146.79,0,0,1-54.36,15.32,155.62,155.62,0,0,1-52.38-4.48,147.86,147.86,0,0,1-33.42-13.25" fill="none" stroke="#ff822f" stroke-linecap="round" stroke-linejoin="round" stroke-width="3"/></g><g id="SPLINE-29" data-name="SPLINE"><path d="M1051.24,300.69c-32.09,1.48-63.72,14-91.17,44.6-15,16.67-26.54,36.1-41.8,52.51-25.13,27-59.91,44-96.44,40.72-46-4.14-81.3-39.53-123.23-60-31.93-15.6-67.82-22.87-102.12-14.17-59.29,15-95.43,73.11-150.3,101.34-44.54,22.92-96.88,23.57-143,3.91-34.76-14.82-69.21-42.54-53.58-73.94,7.49-15,23.11-23.93,39.65-21.43,29.08,4.39,36.59,39.92,27.86,69.65a81.43,81.43,0,0,1-5,13" fill="none" stroke="#ff822f" stroke-linecap="round" stroke-linejoin="round" stroke-width="3"/></g></g><g id="line4"><g id="SPLINE-30" data-name="SPLINE"><path d="M1051.24,529a166.82,166.82,0,0,0-29.18-2.89,161.23,161.23,0,0,0-54.32,9,164.9,164.9,0,0,0-48.21,26.6,203.74,203.74,0,0,0-34.24,35.2,210.78,210.78,0,0,0-25.39,42,202.79,202.79,0,0,0-14.65,122.49c8,41,28.33,78.71,56.7,109.54A300.42,300.42,0,0,0,939,905c13.27,10.29,26.77,20.23,39.74,30.89,30.76,25.27,57,56.08,72.53,92.44" fill="none" stroke="#fda01f" stroke-linecap="round" stroke-linejoin="round" stroke-width="3"/></g><g id="SPLINE-31" data-name="SPLINE"><path d="M1051.24,544.74A149.6,149.6,0,0,0,999.69,543a144.67,144.67,0,0,0-51.64,17.93,165.44,165.44,0,0,0-42,35,215.37,215.37,0,0,0-27.24,39.89A200.39,200.39,0,0,0,861,680.64a175.37,175.37,0,0,0-1.78,79c5.38,26,16.41,50.55,31.47,72.49a247.92,247.92,0,0,0,27.4,33.25A382.16,382.16,0,0,0,950,894.31c5.37,4.37,10.79,8.68,16.33,12.83s11.07,8.31,16.59,12.49c3.76,2.84,7.45,5.76,11.22,8.57s7.47,5.73,11.12,8.71a222.17,222.17,0,0,1,46,51" fill="none" stroke="#fda01f" stroke-linecap="round" stroke-linejoin="round" stroke-width="3"/></g><g id="SPLINE-32" data-name="SPLINE"><path d="M1051.24,560.39a135.53,135.53,0,0,0-34.91-3.41A130.05,130.05,0,0,0,955,574.45a150.22,150.22,0,0,0-43.18,38.75A211.79,211.79,0,0,0,883,663.53c-6,15.22-10.57,31.05-11.91,47.37a157.08,157.08,0,0,0,3.55,48.71A178.56,178.56,0,0,0,889,798.74,208.78,208.78,0,0,0,911.13,834a280.58,280.58,0,0,0,36.68,38.27c13.33,11.61,27.36,22.37,41.57,32.89,9.57,7.09,18.91,14.48,28.28,21.83a268.74,268.74,0,0,1,26.59,23.87q3.62,3.71,7,7.61" fill="none" stroke="#fda01f" stroke-linecap="round" stroke-linejoin="round" stroke-width="3"/></g><g id="SPLINE-33" data-name="SPLINE"><path d="M1051.24,935.52c-38.79-37.7-89.19-63.81-123.66-106.17-30.67-37.7-48.91-86-38.58-133.22,3.15-14.41,8.74-28.1,15.65-41.16,8-15.11,17-29.77,28.5-42.41a124.38,124.38,0,0,1,41.19-30.25,113.82,113.82,0,0,1,52.26-9.85,117.8,117.8,0,0,1,24.64,4" fill="none" stroke="#fda01f" stroke-linecap="round" stroke-linejoin="round" stroke-width="3"/></g></g><g id="line5"><g id="SPLINE-34" data-name="SPLINE"><path d="M0,1080c10.17-17.08,37.29-58,77.57-84.61,23.38-15.46,50-25.91,77.9-28a150,150,0,0,1,37.08,1.83,212.93,212.93,0,0,1,35.83,9.7,421.59,421.59,0,0,1,40.8,17.66c13.31,6.51,26.55,13.16,39.83,19.74,15.81,7.82,31.81,15.26,48.08,22.06a378.15,378.15,0,0,0,50.07,17.07c33.13,8.64,67.58,11.55,101.57,7.59a239.67,239.67,0,0,0,96.48-32.67,208.46,208.46,0,0,0,58.87-52.5,201.35,201.35,0,0,0,27.36-49" fill="none" stroke="#08b323" stroke-linecap="round" stroke-linejoin="round" stroke-width="4"/></g><g id="SPLINE-35" data-name="SPLINE"><path d="M0,1052.39c7.54-10.65,25.41-34.37,47.8-53.71a201.85,201.85,0,0,1,53.05-33.25,173.16,173.16,0,0,1,47.08-12.77,165.76,165.76,0,0,1,48.76,1.5c18.57,3.34,36.46,9.58,53.81,17s34.16,15.76,51,24.2c19.57,9.81,39.26,19.4,59.41,27.94a351.22,351.22,0,0,0,62.47,20.17c42.91,9.3,87.62,8.08,129.24-5.68,42-13.88,79.13-40.16,104.36-76.44a180.25,180.25,0,0,0,14.82-25.52" fill="none" stroke="#08b323" stroke-linecap="round" stroke-linejoin="round" stroke-width="4"/></g><g id="SPLINE-36" data-name="SPLINE"><path d="M0,1026.39c8-10,21.73-26,37.72-39.85a219.89,219.89,0,0,1,56.74-35.48,186.24,186.24,0,0,1,51.78-14.37A177,177,0,0,1,200,938.76c19.29,3.67,37.9,10.17,56,17.85s35.63,16.28,53.18,25c19,9.45,38,18.8,57.58,27s39.74,15.2,60.53,19.57a235.42,235.42,0,0,0,62.49,4.69,226.22,226.22,0,0,0,61.42-12.39,202.92,202.92,0,0,0,52-26.92,172.49,172.49,0,0,0,41.18-41.68c2.78-4.05,5.38-8.22,7.76-12.51" fill="none" stroke="#08b323" stroke-linecap="round" stroke-linejoin="round" stroke-width="4"/></g><g id="SPLINE-37" data-name="SPLINE"><path d="M0,676.41a224.25,224.25,0,0,1,20.91-10.59c20.2-8.84,42.31-14,63.45-8.3,24.57,6.63,42.23,26.59,59.67,45.46s35.27,37.77,55.29,54c32.73,26.6,71.36,46.59,113.24,45.17,66.56-2.26,114.22-57.26,157.57-109.68,7.68-9.29,15.21-18.72,23.29-27.67a246,246,0,0,1,26-25.19c11.15-9.18,23.16-17.34,36.38-23.13a105.81,105.81,0,0,1,42.08-9.37,99.26,99.26,0,0,1,49.87,13.54,131.53,131.53,0,0,1,38.42,34.54A172.43,172.43,0,0,1,709,696.38c32.63,82.38,19.36,186.36-55.44,192.55" fill="none" stroke="#08b323" stroke-linecap="round" stroke-linejoin="round" stroke-width="4"/></g><g id="SPLINE-38" data-name="SPLINE"><path d="M633.72,939.93c-34.69,53.33-106.38,83.86-178.34,77C347.83,1006.62,262,913.8,154.78,920,82.87,924.18,27.83,972.29,0,1002.61" fill="none" stroke="#08b323" stroke-linecap="round" stroke-linejoin="round" stroke-width="4"/></g><g id="SPLINE-39" data-name="SPLINE"><path d="M669.59,885.86a146.46,146.46,0,0,0,.76-29.9,107,107,0,0,0-1.31-10.7,83.84,83.84,0,0,0-2.52-10.49,67.54,67.54,0,0,0-4.57-11,51.32,51.32,0,0,0-6.72-9.87,49.67,49.67,0,0,0-27.67-16,51.48,51.48,0,0,0-31.73,3.89,55.26,55.26,0,0,0-24.61,22.48,47,47,0,0,0-6.42,23.8,44.6,44.6,0,0,0,7.08,23.63,50.81,50.81,0,0,0,7.55,9.07,71.25,71.25,0,0,0,9.18,7.44,83.71,83.71,0,0,0,10.22,5.91,98,98,0,0,0,10.92,4.52,111.55,111.55,0,0,0,33.68,6.28,92.59,92.59,0,0,0,33.86-5.23,83.11,83.11,0,0,0,21.37-11.46,87.25,87.25,0,0,0,17.21-17.07,106.31,106.31,0,0,0,12.41-21A136.48,136.48,0,0,0,736.13,827a191.35,191.35,0,0,0,5.17-53.49,246.88,246.88,0,0,0-8.17-53.12,249.58,249.58,0,0,0-10.08-30.76,199.1,199.1,0,0,0-14.45-29,165.1,165.1,0,0,0-27.15-34,130.92,130.92,0,0,0-35.93-24.56A114.18,114.18,0,0,0,604.32,592a117.61,117.61,0,0,0-42.06,5.49,141.41,141.41,0,0,0-32.13,15.18,200.89,200.89,0,0,0-28.21,21.59,280.39,280.39,0,0,0-20.19,20.46c-6.39,7.15-12.52,14.51-18.61,21.91q-7.25,8.8-14.54,17.56t-14.86,17.29c-8.6,9.75-17.53,19.21-26.9,28.22a208.66,208.66,0,0,1-30.29,24.56c-15.86,10.34-33.59,17.66-52.3,20.45a120.81,120.81,0,0,1-55.93-5.06,162,162,0,0,1-38-19,282.59,282.59,0,0,1-33.47-26.14c-7.64-6.91-15-14.12-22.16-21.54S160.51,698,153.53,690.39q-5-5.49-10.17-10.89c-3.43-3.6-7-7.1-10.6-10.48-3.91-3.63-8-7.08-12.24-10.3a100,100,0,0,0-13.44-8.67,88.5,88.5,0,0,0-28.8-9.43,99.34,99.34,0,0,0-30.3.58c-16.64,2.67-32.54,8.66-47.47,16.48l-.51.26" fill="none" stroke="#08b323" stroke-linecap="round" stroke-linejoin="round" stroke-width="4"/></g><g id="SPLINE-40" data-name="SPLINE"><path d="M687.54,877.13c1.15-15.83-.39-31.7-5.88-46.63-6.68-18.14-18.9-33.91-36.2-42.39a66.52,66.52,0,0,0-55.74-.84c-17.23,7.47-30.91,21.56-36.85,39.34s-3.22,37.09,5.78,53.6c16.43,30.16,50.42,45.52,85,44.29a111.82,111.82,0,0,0,85-44.18,116.33,116.33,0,0,0,14-23.75,163.78,163.78,0,0,0,8.85-26.08,202.81,202.81,0,0,0,5.58-57.27,278.23,278.23,0,0,0-19.49-89.63,217.42,217.42,0,0,0-15.38-30.85A180.18,180.18,0,0,0,692.08,615a145.68,145.68,0,0,0-39.91-27.16,130.69,130.69,0,0,0-46.95-11.52,134.12,134.12,0,0,0-48,6.21A155.41,155.41,0,0,0,522,599.11a214.61,214.61,0,0,0-30.91,23.71c-7.33,6.72-14.28,13.83-20.91,21.24s-13,15-19.33,22.68q-7.19,8.71-14.41,17.38t-14.71,17.13c-8.13,9.25-16.5,18.27-25.35,26.83a183.7,183.7,0,0,1-28.74,23.16,118,118,0,0,1-45.57,17.46,107.21,107.21,0,0,1-48.64-4,140.58,140.58,0,0,1-35-17.45A265.71,265.71,0,0,1,207.68,723q-11.2-10.17-21.72-21.09c-7-7.26-13.89-14.64-20.72-22.06-3.51-3.8-7-7.59-10.59-11.33s-7.24-7.38-11-10.91A179.93,179.93,0,0,0,129.76,646a113.38,113.38,0,0,0-15.26-9.79,104.65,104.65,0,0,0-33.86-10.95,118.64,118.64,0,0,0-35.59.52A164.35,164.35,0,0,0,0,640" fill="none" stroke="#08b323" stroke-linecap="round" stroke-linejoin="round" stroke-width="4"/></g><g id="SPLINE-41" data-name="SPLINE"><path d="M703.24,862.1a127.8,127.8,0,0,0-1.45-15A122.06,122.06,0,0,0,694.12,820,89.63,89.63,0,0,0,679.54,796c-24.16-28.52-64.72-38.07-98.41-22.37-34,15.83-52.5,53.55-44.91,90.38a84.91,84.91,0,0,0,15.09,33.5,102.86,102.86,0,0,0,26.78,25.14,110.17,110.17,0,0,0,42.23,15.9,123.47,123.47,0,0,0,45.1-1.17,128.39,128.39,0,0,0,51.73-23.83c15.23-11.69,27.09-27,36.33-43.85,23.54-42.88,28.29-93.38,18.8-141.42-9.46-47.87-33.17-92.12-69.64-124.51-21-18.62-45.56-32.94-72.9-39a149.74,149.74,0,0,0-82.55,5,179.12,179.12,0,0,0-51.44,29,324.4,324.4,0,0,0-42.4,41.13q-6.69,7.68-13.14,15.55t-13,15.69q-6.39,7.7-12.94,15.26T401,701.26c-6.1,6.63-12.37,13.1-19,19.23a159,159,0,0,1-21.17,16.78,108.19,108.19,0,0,1-29.56,13.6,91.3,91.3,0,0,1-32.38,3.28,95.64,95.64,0,0,1-28.12-6.92,138.72,138.72,0,0,1-25.43-13.88,229.68,229.68,0,0,1-21-16.19q-10.05-8.65-19.45-18-7.8-7.71-15.29-15.72c-5-5.33-10-10.7-14.94-16.07q-4.23-4.58-8.52-9.1t-8.79-8.85A166.76,166.76,0,0,0,125.51,625,120.78,120.78,0,0,0,88,610.81a126.82,126.82,0,0,0-36-1.53,165.76,165.76,0,0,0-35.23,7.42Q8.26,619.46,0,623" fill="none" stroke="#08b323" stroke-linecap="round" stroke-linejoin="round" stroke-width="4"/></g><g id="SPLINE-42" data-name="SPLINE"><path d="M653.55,888.93a88,88,0,0,1-10.59.22c-38.4-1.41-75.27-25.54-59-56,10.59-19.74,36-27.47,53.89-14.32,12.67,9.33,16.37,25.57,17.18,41.53a136.11,136.11,0,0,1-1.53,28.53" fill="none" stroke="#08b323" stroke-linecap="round" stroke-linejoin="round" stroke-width="4"/></g></g></svg>