<?xml version="1.0" encoding="utf-8"?>
<!-- Generator: Adobe Illustrator 26.2.1, SVG Export Plug-In . SVG Version: 6.00 Build 0)  -->
<svg version="1.1" id="Ebene_1" xmlns="http://www.w3.org/2000/svg" xmlns:xlink="http://www.w3.org/1999/xlink" x="0px" y="0px"
	 viewBox="0 0 800 800" style="enable-background:new 0 0 800 800;" xml:space="preserve">
<desc></desc>
<g id="Page-1">
	<g id="remove">
		<path id="Shape" d="M400,795.9c218.1,0,395.9-177.8,395.9-395.9S618.1,4.1,400,4.1S4.1,181.9,4.1,400S181.9,795.9,400,795.9z
			 M400,59.5C587.4,59.5,740.5,212,740.5,400S588,740.5,400,740.5S59.5,587.4,59.5,400S212.6,59.5,400,59.5z"/>
		<path id="Shape_00000106843234096154117720000017169010894819344532_" d="M217.4,423.9h364.4c15.7,0,28-12.3,28-28
			c0-15.7-12.3-28-28-28H217.4c-15.7,0-28,12.3-28,28C189.4,411.6,202.4,423.9,217.4,423.9z"/>
	</g>
</g>
</svg>
