<?xml version="1.0" encoding="utf-8"?>
<!-- Generator: Adobe Illustrator 26.2.1, SVG Export Plug-In . SVG Version: 6.00 Build 0)  -->
<svg version="1.1" id="Ebene_1" xmlns="http://www.w3.org/2000/svg" xmlns:xlink="http://www.w3.org/1999/xlink" x="0px" y="0px"
	 viewBox="0 0 800 800" style="enable-background:new 0 0 800 800;" xml:space="preserve">
<desc></desc>
<g id="Page-1">
	<g id="add">
		<path id="Shape" d="M400,3.4C181.2,3.4,2.7,181.2,2.7,400S180.5,796.6,400,796.6c218.8,0,396.6-177.8,396.6-396.6
			S618.8,3.4,400,3.4z M400,741.2C212,741.2,58.8,588,58.8,400S212,58.8,400,58.8S741.2,212,741.2,400S588,741.2,400,741.2z"/>
		<path id="Shape_00000089551811225002098170000010841227054112493499_" d="M549.2,504.5L439.1,396L548,285.5
			c11-11.2,10.9-28.6-0.3-39.6s-28.6-10.9-39.6,0.3L399.7,356.2L289.6,247.7c-11.2-11-28.6-10.9-39.6,0.3
			c-11,11.2-10.9,28.6,0.3,39.6l110.1,108.5L252,506.2c-11,11.2-10.9,28.6,0.3,39.6c11.2,11,28.6,10.9,39.6-0.3l108.4-110
			l110.1,108.4c11.2,11,28.6,10.9,39.6-0.3C561,532.5,560.4,515.6,549.2,504.5z"/>
	</g>
</g>
</svg>
