<?xml version="1.0" encoding="utf-8"?>
<!-- Generator: Adobe Illustrator 26.2.1, SVG Export Plug-In . SVG Version: 6.00 Build 0)  -->
<svg version="1.1" id="Ebene_1" xmlns="http://www.w3.org/2000/svg" xmlns:xlink="http://www.w3.org/1999/xlink" x="0px" y="0px"
	 viewBox="0 0 800 800" style="enable-background:new 0 0 800 800;" xml:space="preserve">
<desc></desc>
<g id="Page-1">
	<g id="edit">
		<path id="Shape" d="M767.7,734.8H32.3c-15.5,0-27.6,12.8-27.6,27.6c0,14.8,12.8,27.6,27.6,27.6h736.1c15.5,0,27.6-12.8,27.6-27.6
			C796,747.6,783.2,734.8,767.7,734.8z"/>
		<path id="Shape_00000101812545313811352130000012321023231500594339_" d="M4.7,490.8L4,621.8c0,7.4,2.7,14.8,8.1,20.2
			c5.4,5.4,12.1,8.1,19.5,8.1l130.4-0.7c7.4,0,14.1-2.7,19.5-8.1l450.4-450.4c10.8-10.8,10.8-28.2,0-39.7L502.9,20.8
			c-10.8-10.8-28.2-10.8-39.7,0l-90.1,90.8L12.8,471.3C8.1,476.6,4.7,483.4,4.7,490.8z M483.4,80l90.8,90.8L523,221.8l-90.8-90.8
			L483.4,80z M60.5,502.9l332.1-332.1l90.8,90.8L151.3,592.9l-91.4,0.7L60.5,502.9z"/>
	</g>
</g>
</svg>
