<?xml version="1.0" encoding="utf-8"?>
<!-- Generator: Adobe Illustrator 26.2.1, SVG Export Plug-In . SVG Version: 6.00 Build 0)  -->
<svg version="1.1" id="Ebene_1" xmlns="http://www.w3.org/2000/svg" xmlns:xlink="http://www.w3.org/1999/xlink" x="0px" y="0px"
	 viewBox="0 0 800 800" style="enable-background:new 0 0 800 800;" xml:space="preserve">
<desc></desc>
<g id="Page-1">
	<g id="pause">
		<path id="Shape" d="M400,797.3c219.5,0,397.3-178.5,397.3-397.3S619.5,2.7,400,2.7S2.7,180.5,2.7,400S180.5,797.3,400,797.3z
			 M400,58.1c188,0,341.9,153.2,341.9,341.9S588.7,741.9,400,741.9S58.1,588.7,58.1,400S212,58.1,400,58.1z"/>
		<path id="Shape_00000167358227461491521790000005988557597200785828_" d="M306.8,606.5c15.7,0,28-12.3,28-28V215.4
			c0-15.7-12.3-28-28-28c-15.7,0-28,12.3-28,28v363.1C278.8,594.2,291.1,606.5,306.8,606.5z"/>
		<path id="Shape_00000107553437776852500900000004156093168742229892_" d="M493.2,606.5c15.7,0,28-12.3,28-28V215.4
			c0-15.7-12.3-28-28-28c-15.7,0-28,12.3-28,28v363.1C465.1,594.2,477.4,606.5,493.2,606.5z"/>
	</g>
</g>
</svg>
