<?xml version="1.0" encoding="utf-8"?>
<!-- Generator: Adobe Illustrator 26.2.1, SVG Export Plug-In . SVG Version: 6.00 Build 0)  -->
<svg version="1.1" id="Ebene_1" xmlns="http://www.w3.org/2000/svg" xmlns:xlink="http://www.w3.org/1999/xlink" x="0px" y="0px"
	 viewBox="0 0 800 800" style="enable-background:new 0 0 800 800;" xml:space="preserve">
<desc></desc>
<g id="Page-1">
	<g id="play-button">
		<path id="Shape" d="M408.6,797.9c212.7-4.5,384.7-176.6,389.3-389.3C802.7,181.8,618.2-2.7,391.4,2.1
			C178.7,6.7,6.7,178.7,2.1,391.4C-2.7,618.2,181.8,802.7,408.6,797.9z M400,58.1c201.5,0,362.4,174.5,339.7,380.6
			C723.7,584.8,590,720.7,444.1,739.1c-208.4,26.2-386-136.6-386-339.1C58.1,212,211.3,58.1,400,58.1z"/>
		<path id="Shape_00000158005538777488199610000007505702966022157223_" d="M322.1,605.1c3.4,1.4,6.8,2.1,10.9,2.1
			c7.5,0,14.4-2.7,19.8-8.2l180.5-181.2c5.5-5.5,8.2-12.3,8.2-19.8c0-7.5-2.7-15-8.2-19.8L352.1,196.9c-8.2-8.2-19.8-10.3-30.8-6.2
			c-10.3,4.1-17.1,14.4-17.1,26v362.4C304.3,590.1,311.1,600.3,322.1,605.1z M365.8,289.9l105.8,105.8c1.2,1.2,1.2,3.2,0,4.5
			L365.8,506c-2,2-5.4,0.6-5.4-2.2V292.1C360.3,289.3,363.8,287.9,365.8,289.9z"/>
	</g>
</g>
</svg>
