<?xml version="1.0" encoding="utf-8"?>
<!-- Generator: Adobe Illustrator 26.2.1, SVG Export Plug-In . SVG Version: 6.00 Build 0)  -->
<svg version="1.1" id="Ebene_1" xmlns="http://www.w3.org/2000/svg" xmlns:xlink="http://www.w3.org/1999/xlink" x="0px" y="0px"
	 viewBox="0 0 800 800" style="enable-background:new 0 0 800 800;" xml:space="preserve">
<desc></desc>
<g id="Page-1">
	<g id="zoomout">
		<path id="Shape" d="M311.8,3.4C141.5,3.4,3.4,141.5,3.4,311.8s138.1,308.4,308.4,308.4c75.2,0,143.6-26.7,197.6-71.8l240,240
			c5.5,5.5,12.3,8.2,19.8,8.2c6.8,0,14.4-2.7,19.8-8.2c10.9-10.9,10.9-28.7,0-39.7l-240-239.3c44.4-53.3,71.8-122.4,71.8-197.6
			C620.2,141.5,482.1,3.4,311.8,3.4z M311.8,564.8c-139.5,0-253-113.5-253-253s113.5-253,253-253s253,113.5,253,253
			S451.3,564.8,311.8,564.8z"/>
	</g>
</g>
</svg>
