<?xml version="1.0" encoding="utf-8"?>
<!-- Generator: Adobe Illustrator 26.2.1, SVG Export Plug-In . SVG Version: 6.00 Build 0)  -->
<svg version="1.1" xmlns="http://www.w3.org/2000/svg" xmlns:xlink="http://www.w3.org/1999/xlink" x="0px" y="0px"
	 viewBox="0 0 1101.5 1080" style="enable-background:new 0 0 1101.5 1080;" xml:space="preserve">
<style type="text/css">
</style>
<g id="New_x5F_2D_Drafting_-_General_x5F_Pen_x5F_No_x5F__x5F_59">
	<g id="HATCH">
		<polygon class="st0" points="0,840.9 56.6,848.4 36.3,880.9 60.7,880.9 47,937.4 103.4,909.9 103.4,955.7 145.4,937.4 
			145.4,991.4 209.4,991.4 200.9,1025.2 244.6,1023 254.6,1080 1101.5,233.1 1070.4,234 1068.7,224.1 1037.8,221.6 1045.7,194.4 
			1021.2,192.4 1011.4,162.8 981.1,165.4 977.1,143.9 954.2,138.9 965.2,107.8 913,107.8 913,72.1 877.8,72.1 870.7,41.9 
			840.9,41.9 840.9,0 		"/>
	</g>
</g>
<g id="New_x5F_2D_Drafting_-_General_x5F_Pen_x5F_No_x5F__x5F_1">
	<g id="LWPOLYLINE">
		<polygon class="st1" points="0,840.9 56.6,848.4 36.3,880.9 60.7,880.9 47,937.4 103.4,909.9 103.4,955.7 145.4,937.4 
			145.4,991.4 209.4,991.4 200.9,1025.2 244.6,1023 254.6,1080 1101.5,233.1 1070.4,234 1068.7,224.1 1037.8,221.6 1045.7,194.4 
			1021.2,192.4 1011.4,162.8 981.1,165.4 977.1,143.9 954.2,138.9 965.2,107.8 913,107.8 913,72.1 877.8,72.1 870.7,41.9 
			840.9,41.9 840.9,0 		"/>
	</g>
</g>
</svg>
